<svg width="200" height="62" viewBox="0 0 200 62" fill="none" xmlns="http://www.w3.org/2000/svg">
<mask id="mask0" mask-type="alpha" maskUnits="userSpaceOnUse" x="0" y="6" width="37" height="42">
<path fill-rule="evenodd" clip-rule="evenodd" d="M0 6.31212H36.8849V47.3935H0V6.31212Z" fill="white"/>
</mask>
<g mask="url(#mask0)">
<path fill-rule="evenodd" clip-rule="evenodd" d="M27.3457 40.4144C26.2824 41.9161 25.1268 43.323 23.8045 44.6034C21.9909 46.3423 20.3397 47.2828 18.6878 47.3777C18.5828 47.3856 18.4771 47.3935 18.3728 47.3935C18.2818 47.3935 18.2048 47.3935 18.1208 47.3777C16.5039 47.2591 14.8659 46.3185 13.081 44.6034C11.7714 43.323 10.6031 41.9161 9.53919 40.4144C11.5271 40.8017 13.536 41.0388 15.5519 41.1573C16.5319 41.2206 17.5258 41.2601 18.5128 41.2759C19.4857 41.2601 20.4517 41.2206 21.4106 41.1573C23.3986 41.0309 25.3795 40.8017 27.3457 40.4144Z" fill="#00C6FF"/>
<path fill-rule="evenodd" clip-rule="evenodd" d="M9.06223 12.974C8.13625 14.1452 7.29138 15.3857 6.48031 16.647C4.56752 19.6477 3.10759 22.8702 1.73552 26.1274L1.72876 26.1413L1.41109 27.0907L1.18129 26.4393C0.559462 23.9652 -0.143469 21.5119 0.0255045 18.8715C0.133648 17.3261 0.694641 16.2034 1.91801 15.3649C3.25629 14.457 4.75002 13.9442 6.2843 13.5561C7.21028 13.3274 8.13625 13.1334 9.06223 12.974Z" fill="#00C6FF"/>
<path fill-rule="evenodd" clip-rule="evenodd" d="M26.3732 30.5169C26.3732 31.733 25.3784 32.7129 24.1358 32.7129H12.7413C11.5065 32.7129 10.5046 31.733 10.5046 30.5169V24.3041C10.5046 23.4285 10.8574 22.5945 11.4783 21.9761L16.996 16.5486C17.7855 15.7633 19.0916 15.7633 19.8959 16.5486L25.3995 21.9761C26.0204 22.5945 26.3732 23.4285 26.3732 24.3041V30.5169ZM35.6446 27.2645L35.4111 26.6044L35.0724 25.6523L35.0661 25.6384C33.6337 22.3722 32.1167 19.1407 30.1192 16.1316C29.2661 14.8668 28.3842 13.6229 27.4104 12.4484C26.345 11.128 25.1737 9.88411 23.8472 8.76525C22.0409 7.25724 20.3969 6.43026 18.7599 6.32602C18.6753 6.31212 18.597 6.31212 18.513 6.31212C18.4072 6.31212 18.2943 6.31907 18.1884 6.32602C16.5366 6.40941 14.8581 7.23639 13.0376 8.76525C11.7111 9.88411 10.5328 11.128 9.46032 12.4484C8.49366 13.6229 7.61168 14.8668 6.76498 16.1316C4.76817 19.1407 3.2441 22.3722 1.81176 25.6384L1.8047 25.6523L1.47308 26.6044L1.23318 27.2645C0.584038 29.7455 -0.149772 32.2056 0.0266248 34.8533C0.139519 36.403 0.725156 37.5288 2.00227 38.3627C3.39933 39.28 4.95868 39.7943 6.56036 40.1835C7.52701 40.4128 8.49366 40.6074 9.46737 40.7672C11.4712 41.1077 13.4963 41.3162 15.5284 41.4205C16.5162 41.4761 17.5181 41.5108 18.513 41.5247C19.4938 41.5108 20.4675 41.4761 21.4341 41.4205C23.438 41.3093 25.4348 41.1077 27.4168 40.7672C28.3842 40.6074 29.3572 40.4128 30.3175 40.1835C31.9262 39.7943 33.4926 39.28 34.8819 38.3627C36.1597 37.5288 36.7454 36.403 36.8582 34.8533C37.0346 32.2056 36.3008 29.7455 35.6446 27.2645Z" fill="#023FB4"/>
<path fill-rule="evenodd" clip-rule="evenodd" d="M35.6986 26.4393L35.4752 27.0907L35.1513 26.1413L35.1452 26.1274C33.7752 22.8702 32.3241 19.6477 30.4135 16.647C29.5976 15.3857 28.754 14.1452 27.8226 12.974C28.754 13.1264 29.6786 13.3205 30.6032 13.5561C32.1419 13.9442 33.6402 14.457 34.969 15.3649C36.1913 16.2034 36.7514 17.3261 36.8594 18.8715C37.0281 21.5119 36.3262 23.9652 35.6986 26.4393Z" fill="#00C6FF"/>
</g>
<path fill-rule="evenodd" clip-rule="evenodd" d="M192.413 36.8404C191.993 37.7637 191.07 38.561 189.979 38.561C189.601 38.561 189.308 38.4351 189.014 38.3092C187.881 37.6378 187.503 36.4208 187.797 34.91C188.217 32.9797 189.601 31.3011 191.028 29.9582C191.021 29.9351 191.014 29.9148 191.009 29.8966C190.983 29.8155 190.971 29.7749 190.902 29.7064C190.734 29.2868 190.483 28.8671 190.231 28.4475C190.063 28.2376 189.895 27.9858 189.811 27.776C189.664 27.5032 189.497 27.241 189.329 26.9787C189.161 26.7164 188.993 26.4541 188.846 26.1814C188.757 25.9139 188.647 25.6464 188.53 25.364C188.482 25.2477 188.433 25.1288 188.384 25.0063C187.965 23.076 188.972 20.9358 190.776 20.2224C191.742 19.8027 193.168 19.7607 193.882 20.8938C194.385 21.6492 194.302 22.4045 193.924 22.8242C193.672 23.2438 193.085 23.5376 192.749 23.076C192.581 22.7822 192.623 22.4465 192.875 22.2367C193.085 22.0688 193.126 21.817 192.917 21.4813C192.581 21.0197 191.784 21.0197 191.238 21.2715C189.979 21.7751 189.224 23.2858 189.559 24.7546C189.727 25.3421 190.063 25.9715 190.483 26.601C190.503 26.6406 190.522 26.6849 190.543 26.7317C190.611 26.8831 190.69 27.0603 190.818 27.1885C190.971 27.4742 191.14 27.76 191.308 28.0418C191.509 28.3808 191.707 28.7141 191.868 29.035L192.119 28.8251C194.134 26.7689 196.568 24.8385 199.127 23.4536C199.421 23.2858 199.799 23.4117 199.925 23.7054C200.093 23.9992 199.967 24.2929 199.673 24.4608C197.197 25.8037 194.889 27.6921 192.917 29.6225C192.749 29.8323 192.581 30.0421 192.371 30.21C192.623 30.9653 192.833 31.7207 192.917 32.3922C193.043 32.9797 193.043 33.4832 193.043 33.9868C193.043 35.0779 192.833 36.0431 192.413 36.8404ZM188.972 35.1618C188.804 35.8333 188.762 36.8404 189.559 37.302C189.769 37.386 190.021 37.4279 190.315 37.344C190.735 37.1761 191.154 36.8404 191.406 36.3368C191.826 35.4136 191.993 34.1547 191.784 32.56C191.742 32.0984 191.616 31.5948 191.49 31.1332C190.315 32.3502 189.224 33.735 188.972 35.1618Z" fill="#051635"/>
<path fill-rule="evenodd" clip-rule="evenodd" d="M189.098 23.4536C189.35 23.5795 189.434 23.9992 189.224 24.251C188.091 26.0135 184.901 30.5037 182.258 30.3778H182.174C181.292 30.3778 180.579 29.8743 180.075 29.035C179.488 27.9858 179.236 26.6849 179.236 25.468C179.236 23.9153 179.614 22.5304 180.285 21.9009C180.621 21.4393 181.167 21.2715 181.67 21.5652C182.383 21.9429 182.635 22.9501 182.509 23.9992C182.3 25.5519 181.376 26.5171 180.495 26.9367C180.621 27.4823 180.831 27.9858 181.083 28.4475C181.418 29.035 181.796 29.2448 182.174 29.2868H182.258C183.559 29.2868 185.825 27.2724 188.301 23.5795C188.468 23.2858 188.846 23.2438 189.098 23.4536ZM181.083 22.6563C180.663 23.076 180.327 24.251 180.369 25.6778C180.873 25.2581 181.25 24.5028 181.334 23.8313C181.418 23.1599 181.292 22.7402 181.125 22.6563H181.083Z" fill="#051635"/>
<path fill-rule="evenodd" clip-rule="evenodd" d="M168.199 45.4852C168.073 45.6111 167.948 45.653 167.822 45.653C167.654 45.653 167.486 45.5691 167.402 45.4012C166.898 44.8137 166.647 43.303 166.647 40.911C166.647 37.1342 167.276 31.1332 168.451 23.076C169.165 18.292 170.004 13.5919 170.717 9.60525C167.024 10.2347 163.248 11.1999 159.848 12.6267C159.722 12.6687 159.681 12.6687 159.597 12.6687C159.387 12.6687 159.177 12.5008 159.009 12.249C158.925 11.9553 159.093 11.6615 159.387 11.4937C163.038 10.0669 167.024 9.05971 170.927 8.34631C171.682 4.40161 172.27 1.50604 172.564 0.414956C172.606 0.121202 172.941 -0.0886223 173.235 0.0372722C173.571 0.079237 173.781 0.414956 173.697 0.750674C173.366 1.7438 172.831 4.45067 172.132 7.98612L172.132 7.98618L172.102 8.13648C176.718 7.42308 180.915 7.17129 183.936 7.17129C185.069 7.17129 186.034 7.21326 186.79 7.29719C187.126 7.29719 187.377 7.59094 187.335 7.8847C187.293 8.17845 187.042 8.43024 186.664 8.43024C185.95 8.38827 185.069 8.34631 184.02 8.34631C180.915 8.34631 176.55 8.5981 171.934 9.39543C171.854 9.84859 171.772 10.3124 171.688 10.7857L171.688 10.786C171.024 14.5209 170.255 18.8538 169.584 23.2858C168.199 32.6439 167.78 37.9315 167.78 40.953L167.78 41.0662C167.787 43.4584 168.035 44.3986 168.283 44.6878C168.493 44.9396 168.451 45.3173 168.199 45.4852ZM161.065 31.7207C161.023 32.0145 160.772 32.1404 160.52 32.1404C160.184 32.1404 159.89 31.8466 159.974 31.5109V31.4689C160.31 28.8671 160.478 27.1046 160.478 25.8456C160.478 24.251 160.268 23.5376 160.016 23.2858L160.016 23.2858C159.992 23.2616 159.982 23.2514 159.97 23.247C159.96 23.2438 159.95 23.2438 159.932 23.2438C159.639 23.2019 159.387 22.9081 159.429 22.5724C159.429 22.2367 159.722 22.0268 160.016 22.0268C160.436 22.0688 160.73 22.2367 160.939 22.5304C161.401 23.076 161.569 23.9992 161.653 25.2581C162.24 23.6635 163.331 21.1875 164.8 20.8099C165.472 20.684 166.017 20.7259 166.479 21.1875C166.94 21.5652 167.066 22.2367 167.066 22.9081C167.066 23.4117 166.982 23.9572 166.856 24.3349C166.815 24.6706 166.479 24.9224 166.185 24.7965C165.849 24.7545 165.681 24.4608 165.723 24.167C166.017 22.9501 165.849 22.1947 165.681 21.9849C165.598 21.9429 165.43 21.9009 165.052 21.9429C163.919 22.2367 162.031 26.4751 161.065 31.7207ZM173.361 20.5581C173.697 20.5581 173.949 20.3063 173.949 19.9706C173.949 19.9337 174.272 19.3145 174.663 18.6811L174.729 18.5755C174.762 18.5227 174.796 18.4701 174.83 18.4179C174.956 18.1241 174.872 17.7464 174.578 17.6205C174.326 17.4107 173.949 17.4946 173.823 17.7884C173.571 18.208 172.816 19.5089 172.816 19.9706C172.816 20.3063 173.067 20.5581 173.361 20.5581ZM180.411 24.251C179.614 25.426 175.291 31.5948 173.445 31.5948H173.361C172.27 31.5528 171.85 30.4618 171.766 29.2028C171.682 28.7412 171.682 28.2796 171.682 27.7341C171.682 26.8075 171.76 25.765 171.84 24.6807C171.844 24.6354 171.847 24.5901 171.85 24.5447C171.85 24.167 171.85 23.7474 171.892 23.3277C171.934 22.992 172.186 22.7822 172.564 22.7822C172.857 22.7822 173.067 23.076 173.067 23.4117C173.067 23.5911 173.058 23.7799 173.048 23.9782C173.037 24.1974 173.025 24.4282 173.025 24.6706C172.899 26.0135 172.816 27.5242 172.857 28.7412C172.941 30.0002 173.193 30.4618 173.445 30.5037L173.447 30.5035C173.492 30.4983 174.278 30.3636 176.802 27.1885C176.858 27.118 176.913 27.0474 176.967 26.9767L177.077 26.8355C178.344 25.188 179.404 23.5795 179.404 23.5795C179.614 23.3277 179.949 23.2858 180.243 23.4536C180.495 23.5795 180.579 23.9992 180.411 24.251Z" fill="#051635"/>
<path fill-rule="evenodd" clip-rule="evenodd" d="M137.901 61.6836C139.831 61.6836 140.419 54.8014 141.552 40.911C141.804 37.344 142.097 33.735 142.391 30.4618C142.451 30.4678 142.51 30.4738 142.567 30.4797L142.569 30.4799L142.57 30.48L142.57 30.48C142.91 30.5151 143.208 30.5457 143.566 30.5457C146.881 30.5457 148.98 27.734 149.651 25.5099C149.861 24.9224 149.945 24.3349 149.945 23.7894C149.945 22.6563 149.483 21.7331 148.56 21.4393C147.679 21.1456 146.881 21.2715 146.084 21.7331C144.909 22.4045 143.86 23.8313 142.937 25.5519C142.987 25.2397 143.036 24.9313 143.084 24.6278L143.084 24.6248L143.085 24.6207L143.085 24.6206L143.085 24.6206L143.085 24.6206C143.36 22.887 143.61 21.3156 143.86 20.1384C143.902 19.7607 143.776 19.467 143.44 19.425C143.104 19.2991 142.811 19.5089 142.769 19.8027C142.181 22.0688 141.762 25.4679 141.342 29.2867C140.125 32.6439 139.244 36.4208 138.614 39.2744C137.313 45.4432 136.474 52.3674 136.474 56.8157C136.474 59.0818 136.726 60.7604 137.145 61.3059C137.355 61.5157 137.607 61.6836 137.901 61.6836ZM142.559 29.4546C143.902 25.7617 145.371 23.4536 146.671 22.6983C147.175 22.4045 147.679 22.3206 148.14 22.5304C148.686 22.6983 149.063 23.6635 148.56 25.2162C147.93 27.3144 145.79 29.9582 142.559 29.4546ZM137.607 57.0674C137.607 58.746 137.775 59.9211 137.985 60.4246C138.153 60.0469 138.572 58.83 139.076 54.7594C139.579 51.0245 139.999 46.0727 140.377 40.8271C140.457 39.8586 140.528 38.8999 140.599 37.9462L140.599 37.9462C140.675 36.9162 140.751 35.8921 140.838 34.8681C140.775 35.1385 140.71 35.4135 140.643 35.6924L140.643 35.6924C140.361 36.885 140.061 38.1498 139.789 39.4422C138.32 46.1986 137.607 53.0388 137.607 57.0674ZM161.149 24.251C161.359 23.9992 161.275 23.5795 161.023 23.4536C160.772 23.2438 160.394 23.2858 160.226 23.5795C157.75 27.2724 155.484 29.2868 154.183 29.2868H154.099C153.722 29.2448 153.344 29.035 153.008 28.4475C152.756 27.9858 152.547 27.4823 152.421 26.9367C153.302 26.5171 154.225 25.5519 154.435 23.9992C154.561 22.9501 154.309 21.9429 153.596 21.5652C153.092 21.2715 152.547 21.4393 152.211 21.9009C151.539 22.5304 151.162 23.9153 151.162 25.468C151.162 26.6849 151.413 27.9858 152.001 29.035C152.505 29.8743 153.218 30.3778 154.099 30.3778H154.183C156.827 30.5037 160.016 26.0135 161.149 24.251ZM153.008 22.6563C152.589 23.076 152.253 24.251 152.295 25.6778C152.798 25.2581 153.176 24.5028 153.26 23.8313C153.344 23.1599 153.218 22.7402 153.05 22.6563H153.008Z" fill="#051635"/>
<path fill-rule="evenodd" clip-rule="evenodd" d="M111.127 61.6836C113.058 61.6836 113.645 54.8014 114.778 40.911C115.03 37.344 115.324 33.735 115.617 30.4618C115.679 30.4679 115.738 30.474 115.796 30.48C116.137 30.5151 116.434 30.5457 116.792 30.5457C120.108 30.5457 122.206 27.734 122.877 25.5099C123.087 24.9224 123.171 24.3349 123.171 23.7894C123.171 22.6563 122.71 21.7331 121.786 21.4393C120.905 21.1456 120.108 21.2715 119.31 21.7331C118.135 22.4045 117.086 23.8313 116.163 25.5519C116.213 25.2373 116.263 24.9264 116.311 24.6207L116.311 24.6206L116.311 24.6206L116.311 24.6206L116.311 24.6205C116.587 22.8869 116.837 21.3156 117.086 20.1384C117.128 19.7607 117.002 19.467 116.667 19.425C116.331 19.2991 116.037 19.5089 115.995 19.8027C115.408 22.0688 114.988 25.4679 114.568 29.2867C113.351 32.6439 112.47 36.4208 111.841 39.2744C110.54 45.4432 109.7 52.3674 109.7 56.8157C109.7 59.0818 109.952 60.7604 110.372 61.3059C110.582 61.5157 110.833 61.6836 111.127 61.6836ZM115.785 29.4546C117.128 25.7617 118.597 23.4536 119.898 22.6983C120.401 22.4045 120.905 22.3206 121.367 22.5304C121.912 22.6983 122.29 23.6635 121.786 25.2162C121.157 27.3144 119.017 29.9582 115.785 29.4546ZM110.833 57.0674C110.833 58.746 111.001 59.9211 111.211 60.4246C111.379 60.0469 111.799 58.83 112.302 54.7594C112.806 51.0245 113.225 46.0727 113.603 40.8271C113.684 39.8586 113.755 38.8999 113.825 37.9462L113.825 37.9461C113.902 36.9162 113.978 35.8921 114.065 34.8681C114.001 35.1385 113.936 35.4135 113.87 35.6924L113.87 35.6924L113.87 35.6925C113.587 36.8851 113.288 38.1499 113.016 39.4422C111.547 46.1986 110.833 53.0388 110.833 57.0674ZM124.514 32.1404C124.766 32.1404 125.018 32.0145 125.06 31.7207C126.025 26.4751 127.913 22.2367 129.046 21.9429C129.424 21.9009 129.592 21.9429 129.676 21.9849C129.844 22.1947 130.011 22.9501 129.718 24.167C129.676 24.4608 129.844 24.7545 130.179 24.7965C130.473 24.9224 130.809 24.6706 130.851 24.3349C130.977 23.9572 131.061 23.4117 131.061 22.9081C131.061 22.2367 130.935 21.5652 130.473 21.1875C130.011 20.7259 129.466 20.684 128.794 20.8099C127.326 21.1875 126.235 23.6635 125.647 25.2581C125.563 23.9992 125.395 23.076 124.934 22.5304C124.724 22.2367 124.43 22.0688 124.01 22.0268C123.717 22.0268 123.423 22.2367 123.423 22.5724C123.381 22.9081 123.633 23.2018 123.927 23.2438C123.968 23.2438 123.968 23.2438 124.01 23.2858C124.262 23.5376 124.472 24.251 124.472 25.8456C124.472 27.1046 124.304 28.8671 123.968 31.4689V31.5109C123.885 31.8466 124.178 32.1404 124.514 32.1404ZM137.061 26.4751C136.558 29.035 135.215 31.2591 133.746 31.2591H133.453C132.655 31.0912 132.068 30.2519 131.816 29.1189C131.732 28.6153 131.69 28.0698 131.69 27.4823C131.69 26.8108 131.732 26.1814 131.9 25.468C132.445 22.6983 133.914 20.3902 135.509 20.684C136.348 20.8099 136.936 21.6492 137.187 22.7822C137.199 22.9181 137.213 23.0631 137.228 23.2141V23.2141V23.2141L137.228 23.2142V23.2142C137.269 23.6225 137.313 24.0738 137.313 24.5028C138.95 24.7965 140.964 24.4188 142.139 23.076C142.391 22.8242 142.769 22.8242 143.02 23.076C143.23 23.2858 143.272 23.7054 143.02 23.9153C141.803 25.2162 140.041 25.7617 138.362 25.7617C137.985 25.7617 137.607 25.7197 137.229 25.6778C137.219 25.7427 137.21 25.8077 137.202 25.8734C137.179 26.0623 137.155 26.2571 137.061 26.4751ZM136.096 24.0831C135.257 23.7054 134.67 22.992 134.921 21.9429C135.047 21.817 135.089 21.775 135.215 21.775H135.299C135.509 21.9009 135.803 22.1947 136.012 22.992C136.054 23.3277 136.096 23.7054 136.096 24.0831ZM132.991 28.8671C133.159 29.7484 133.453 30.0421 133.704 30.0841C134.334 30.2519 135.509 28.4474 135.97 26.2653C135.992 26.1132 136.003 25.961 136.014 25.8031C136.024 25.656 136.034 25.5039 136.054 25.3421C136 25.306 135.931 25.2777 135.856 25.2471C135.756 25.2066 135.646 25.1621 135.551 25.0903C134.711 24.6706 134.082 24.0411 133.83 23.2858C133.494 23.9992 133.201 24.7965 133.033 25.6778C132.781 26.8528 132.781 27.9858 132.991 28.8671Z" fill="#051635"/>
<path fill-rule="evenodd" clip-rule="evenodd" d="M110.8 30.6366C110.46 30.5596 110.144 30.6355 109.867 30.8665C109.615 31.0778 109.448 31.3285 109.37 31.6136C109.289 31.9081 109.33 32.1953 109.49 32.47C109.655 32.7509 109.907 32.9309 110.239 33.0059L110.244 33.0079C110.343 33.0277 110.437 33.0371 110.529 33.0371C110.784 33.0371 111.014 32.9601 111.217 32.805C111.475 32.6073 111.644 32.3441 111.721 32.0298C111.803 31.7312 111.751 31.4399 111.57 31.1652C111.388 30.8894 111.129 30.7115 110.8 30.6366Z" fill="#051635"/>
<path fill-rule="evenodd" clip-rule="evenodd" d="M106.732 41.2799C107.068 41.2799 107.403 40.8182 107.236 40.4406C106.396 38.5941 105.767 33.5583 105.683 27.5993C107.068 24.8716 108.453 21.3885 109.418 18.3671C110.677 14.5902 111.852 9.59642 111.852 6.44906C111.852 5.60976 111.768 4.93832 111.6 4.43475C111.306 3.46955 110.719 3.1758 110.215 3.09187C109.25 3.00794 108.453 3.51152 107.739 4.51867C105.011 8.37944 104.55 19.7099 104.508 23.0671C104.466 24.4939 104.466 25.9207 104.466 27.3475C103.543 29.1101 102.661 30.369 101.864 31.0404C101.193 31.6699 100.689 31.7538 100.395 31.6279C100.144 31.5021 99.3462 30.9985 99.3462 29.4877C99.3462 28.9842 99.4301 28.4386 99.6399 27.6833C100.395 25.4172 101.528 24.0743 102.032 24.1582C102.452 24.2421 102.661 24.368 102.745 24.6198C102.913 24.9555 102.787 25.4172 102.661 25.6689C102.494 25.9207 102.536 26.2565 102.871 26.4663C103.123 26.6341 103.459 26.5082 103.669 26.2564C104.004 25.7529 104.172 24.8716 103.794 24.1162C103.627 23.6546 103.165 23.193 102.242 22.9832C100.647 22.6894 99.2203 25.1654 98.5069 27.3895L98.5069 27.3895L98.5069 27.3896C98.339 28.1449 98.1712 28.9002 98.1712 29.5297C98.1712 30.9565 98.7167 32.1315 99.8917 32.6771C100.731 33.0548 101.696 32.719 102.619 31.9637C103.249 31.3762 103.92 30.5369 104.508 29.5297C104.76 34.7753 105.305 39.0977 106.186 40.9441C106.27 41.112 106.48 41.2799 106.732 41.2799ZM81.0076 30.7467C81.1338 30.57 81.2675 30.3857 81.4044 30.1973C81.7225 29.7591 82.057 29.2984 82.3504 28.8583C82.812 28.1449 83.2737 27.4315 83.6094 26.76C83.7555 26.5408 83.8875 26.3074 84.0136 26.0845L84.0137 26.0845L84.0137 26.0844C84.1048 25.9233 84.1928 25.7678 84.2808 25.627C84.4487 25.3332 84.3647 24.9555 84.071 24.8296C83.8192 24.6618 83.4415 24.7038 83.2737 24.9975C83.0638 25.3752 82.854 25.7529 82.6022 26.1725C82.3225 26.6621 81.9844 27.21 81.6366 27.7676L81.4272 28.1029C81.0495 28.7324 80.6299 29.3618 80.2522 29.8654C79.329 30.9145 78.5736 31.4181 77.8182 31.2083C76.7691 30.9565 76.3914 29.194 76.3914 26.8859C76.3914 25.3752 76.5593 23.6127 76.7691 21.8501C76.8111 21.5564 76.6013 21.2207 76.3075 21.1787C75.9718 21.1367 75.72 21.3466 75.5941 21.6403C75.5705 21.8994 75.5074 22.1848 75.4416 22.4819C75.3902 22.7142 75.3372 22.9536 75.3003 23.193C74.7968 26.2145 73.9575 30.4529 72.8244 31.2083C72.7405 31.2922 72.6146 31.2922 72.5307 31.2503C72.2369 31.2083 71.9432 30.411 71.9432 29.194C71.9432 28.3547 72.0691 27.2636 72.3628 26.0886C72.9923 23.6546 73.5798 22.9832 73.5798 22.9832C73.6217 22.9832 73.6217 23.1091 73.6217 23.193V23.3609C73.6217 23.4448 73.5798 23.4448 73.5798 23.4448C73.5378 23.8225 73.7476 24.1162 74.0414 24.1582C74.3771 24.2002 74.7128 23.9904 74.7548 23.6966C74.8387 23.3189 74.8387 22.1019 73.8316 21.8501C73.2021 21.6823 72.1949 22.06 71.2298 25.8368C70.978 26.8859 70.7681 28.1029 70.7681 29.194C70.7681 30.7467 71.1878 32.1315 72.2369 32.3833C72.3628 32.4253 72.4887 32.4253 72.5726 32.4253C72.8664 32.4253 73.2021 32.3833 73.4539 32.2155C74.2932 31.6699 74.8387 30.2851 75.3003 28.7324C75.5521 30.7467 76.2236 32.0056 77.5245 32.3833C78.8254 32.6771 80.0004 31.8797 81.0076 30.7467ZM105.683 23.0671V24.9975C106.564 22.9832 107.487 20.6332 108.285 18.0313C109.837 13.2474 110.719 8.88302 110.719 6.36513C110.719 5.73565 110.677 5.19011 110.509 4.77046C110.341 4.30885 110.215 4.26689 110.089 4.26689H110.005C109.586 4.26689 109.166 4.51868 108.704 5.19011C107.026 7.58211 105.893 14.2545 105.683 23.0671Z" fill="#051635"/>
<path fill-rule="evenodd" clip-rule="evenodd" d="M83.3996 32.803C83.6513 32.803 83.9031 32.6771 83.9451 32.3833C84.9103 27.1377 86.7987 22.8993 87.9318 22.6055C88.3094 22.5635 88.4773 22.6055 88.5612 22.6475C88.7291 22.8573 88.8969 23.6127 88.6032 24.8296C88.5612 25.1234 88.7291 25.4172 89.0648 25.4591C89.3586 25.585 89.6943 25.3332 89.7362 24.9975C89.8621 24.6198 89.9461 24.0743 89.9461 23.5707C89.9461 22.8993 89.8202 22.2278 89.3586 21.8501C88.8969 21.3885 88.3514 21.3466 87.68 21.4725C86.2112 21.8501 85.1201 24.3261 84.5326 25.9207C84.4487 24.6618 84.2808 23.7386 83.8192 23.193C83.6094 22.8993 83.3156 22.7314 82.896 22.6894C82.6022 22.6894 82.3085 22.8993 82.3085 23.235C82.2665 23.5707 82.5183 23.8645 82.812 23.9064C82.854 23.9064 82.854 23.9064 82.896 23.9484C83.1478 24.2002 83.3576 24.9136 83.3576 26.5082C83.3576 27.7672 83.1897 29.5297 82.854 32.1315V32.1735C82.7701 32.5092 83.0638 32.803 83.3996 32.803ZM101.025 24.9136C101.235 24.6618 101.151 24.2421 100.899 24.1162C100.647 23.9064 100.269 23.9484 100.102 24.2421C97.6256 27.935 95.3595 29.9494 94.0586 29.9494H93.9747C93.597 29.9074 93.2193 29.6976 92.8836 29.1101C92.6318 28.6484 92.422 28.1449 92.2961 27.5993C93.1774 27.1797 94.1006 26.2145 94.3104 24.6618C94.4363 23.6127 94.1845 22.6055 93.4711 22.2278C92.9675 21.9341 92.422 22.1019 92.0863 22.5635C91.4148 23.193 91.0372 24.5779 91.0372 26.1306C91.0372 27.3475 91.2889 28.6484 91.8765 29.6976C92.38 30.5369 93.0934 31.0404 93.9747 31.0404H94.0586C96.7024 31.1663 99.8917 26.6761 101.025 24.9136ZM92.8836 23.3189C92.464 23.7386 92.1282 24.9136 92.1702 26.3404C92.6738 25.9207 93.0515 25.1654 93.1354 24.4939C93.2193 23.8225 93.0934 23.4028 92.9256 23.3189H92.8836Z" fill="#051635"/>
<path d="M81.0076 30.7467C81.4272 30.1592 81.9308 29.4877 82.3504 28.8583C82.812 28.1449 83.2737 27.4315 83.6094 26.76C83.8612 26.3823 84.071 25.9627 84.2808 25.627C84.4487 25.3332 84.3647 24.9555 84.071 24.8296C83.8192 24.6618 83.4415 24.7037 83.2737 24.9975C83.0638 25.3752 82.854 25.7529 82.6022 26.1725C82.3225 26.6621 81.9844 27.21 81.6366 27.7676L81.4272 28.1029C81.0495 28.7324 80.6299 29.3618 80.2522 29.8654C79.329 30.9145 78.5736 31.4181 77.8182 31.2083C76.7691 30.9565 76.3914 29.194 76.3914 26.8859C76.3914 25.3752 76.5593 23.6127 76.7691 21.8501C76.8111 21.5564 76.6013 21.2207 76.3075 21.1787C75.9718 21.1367 75.72 21.3466 75.5941 21.6403C75.5521 22.1019 75.3843 22.6475 75.3003 23.193C74.7968 26.2145 73.9575 30.4529 72.8244 31.2083C72.7405 31.2922 72.6146 31.2922 72.5307 31.2503C72.2369 31.2083 71.9432 30.411 71.9432 29.194C71.9432 28.3547 72.0691 27.2636 72.3628 26.0886C72.9923 23.6546 73.5798 22.9832 73.5798 22.9832C73.6217 22.9832 73.6217 23.1091 73.6217 23.193V23.3609C73.6217 23.4448 73.5798 23.4448 73.5798 23.4448C73.5378 23.8225 73.7476 24.1162 74.0414 24.1582C74.3771 24.2002 74.7128 23.9903 74.7548 23.6966C74.8387 23.3189 74.8387 22.1019 73.8316 21.8501C73.2021 21.6823 72.1949 22.06 71.2298 25.8368C70.978 26.8859 70.7681 28.1029 70.7681 29.194C70.7681 30.7467 71.1878 32.1315 72.2369 32.3833C72.3628 32.4253 72.4887 32.4253 72.5726 32.4253C72.8664 32.4253 73.2021 32.3833 73.4539 32.2154C74.2932 31.6699 74.8387 30.2851 75.3003 28.7324C75.5521 30.7467 76.2236 32.0056 77.5245 32.3833C78.8254 32.6771 80.0004 31.8797 81.0076 30.7467Z" fill="#051635"/>
<path fill-rule="evenodd" clip-rule="evenodd" d="M50.4572 39.0557C51.2125 38.8459 51.884 38.2584 52.2617 37.503C52.6813 36.7057 52.8911 35.7405 52.8911 34.5655C52.8911 34.1458 52.8492 33.6423 52.7652 33.1387C52.7264 32.4777 52.5073 31.7807 52.3085 31.1478L52.2617 30.9985C53.4367 29.9913 55.3671 28.1868 57.3814 25.8368C57.801 25.2493 58.2626 24.7038 58.7662 24.1163C58.7452 24.389 58.7242 24.6512 58.7033 24.9134L58.7033 24.9136L58.7032 24.9137C58.6823 25.176 58.6613 25.4382 58.6403 25.7109C58.5144 27.1797 58.3885 29.5297 58.3885 31.5021C58.3885 33.2226 58.5144 34.6494 58.8921 35.0271C59.018 35.153 59.1859 35.2369 59.3117 35.2369C60.0252 35.2369 60.3189 34.2298 60.9064 31.9217C60.9795 31.6292 61.0527 31.3159 61.1284 30.9915L61.1284 30.9915L61.1284 30.9915C61.3568 30.0127 61.6088 28.933 61.9555 28.019C62.4171 26.7181 62.8368 26.0886 63.2145 26.0886C63.3064 26.0886 63.3312 26.1557 63.3869 26.3062C63.4075 26.3618 63.4323 26.4289 63.4663 26.5082C63.4768 26.6131 63.4872 26.7337 63.499 26.8693L63.4991 26.8696L63.4991 26.8696C63.5345 27.2768 63.5817 27.8197 63.6761 28.4806V28.7324C63.6761 28.7534 63.6866 28.8163 63.6971 28.8793C63.7076 28.9422 63.7181 29.0052 63.7181 29.0261L63.76 29.5297C63.7803 29.733 63.7908 29.9166 63.801 30.0947V30.0948C63.8118 30.2844 63.8223 30.468 63.844 30.6628C63.9279 31.5021 64.2216 33.2226 65.5645 33.2646C65.9842 33.2646 66.3199 33.1387 66.5717 32.9289C66.8235 32.719 67.0333 32.4673 67.2431 32.2155L67.2851 32.1735C67.7886 31.4601 68.3342 30.7467 68.8797 30.0333C69.3833 29.2779 69.9708 28.5226 70.5583 27.8511C71.1039 27.1377 71.6494 26.4663 72.3628 25.9207C72.5307 25.7109 72.5726 25.4172 72.3628 25.1234C72.111 24.8716 71.7753 24.8716 71.5235 25.0814C71.0052 25.5026 70.5369 26.0487 70.0607 26.6041L70.0605 26.6043C69.9199 26.7683 69.7786 26.9331 69.6351 27.0958C69.0476 27.8511 68.5021 28.6064 67.9566 29.3618L67.9565 29.3619C67.785 29.5823 67.6279 29.7921 67.4756 29.9952C67.1062 30.4882 66.7656 30.9427 66.3199 31.4181C66.3199 31.436 66.3199 31.4462 66.3167 31.4553C66.3123 31.4677 66.302 31.4779 66.2779 31.5021C66.2359 31.628 66.194 31.6699 66.0681 31.7538C66.0261 31.9217 65.7743 32.1315 65.6065 32.1315C65.4386 32.1315 65.3127 31.9637 65.2288 31.7119C65.2127 31.6313 65.1904 31.5632 65.169 31.4978L65.169 31.4978C65.1347 31.393 65.1029 31.2956 65.1029 31.1663C65.081 31.0789 65.0706 30.9687 65.0596 30.8536C65.0495 30.7476 65.0391 30.6374 65.019 30.5369C64.9986 30.3533 64.9881 30.1697 64.9779 29.9909V29.9909C64.9671 29.8019 64.9566 29.6183 64.935 29.4458L64.8511 28.9002V28.6065C64.8511 28.5573 64.8367 28.4938 64.8248 28.4411L64.8248 28.4411L64.8248 28.4411C64.8163 28.4038 64.8091 28.3721 64.8091 28.3547C64.7672 27.0118 64.5154 24.9555 63.2564 24.9136C61.7793 24.88 60.8393 27.3442 60.1786 29.8352L60.1295 30.0221C59.984 30.5825 59.8523 31.1412 59.7314 31.6699C59.6894 31.9217 59.6475 32.1735 59.5216 32.4253L59.5218 32.2452C59.5253 30.7742 59.5736 28.5729 59.8153 25.7529V25.3332L59.8993 24.1163C59.9412 23.5707 59.9832 22.9832 60.0252 22.3957C62.2493 19.2903 64.5574 15.3036 66.194 10.6455C66.2359 10.3518 66.3618 10.058 66.4877 9.76428C66.8654 8.12765 67.2011 6.57495 67.2011 5.35797C67.2011 4.60261 67.0752 4.0151 66.8235 3.55348C66.4877 2.96598 65.9422 2.58829 65.2288 2.58829C63.9258 2.50933 63.1058 3.76776 62.8037 4.23141C62.7847 4.26053 62.7677 4.28653 62.7529 4.30885C61.9555 5.69369 61.4939 7.24639 61.1582 8.5473C60.5707 10.5196 60.151 12.6179 59.7314 15.0518C59.6296 15.6881 59.5432 16.3397 59.4536 17.0162L59.4536 17.0162L59.4536 17.0162C59.3954 17.4552 59.3358 17.9046 59.2698 18.3671C59.2068 18.9756 59.1544 19.5631 59.1019 20.1506C59.0495 20.7381 58.997 21.3256 58.9341 21.9341C58.0528 23.1091 57.2555 24.1582 56.5001 24.9975C54.5278 27.2636 52.8492 28.9422 51.842 29.8654C51.5063 29.3619 51.2545 28.9422 51.0866 28.4806C51.0556 28.4418 51.0246 28.4044 50.9941 28.3677C50.8596 28.2058 50.7354 28.0563 50.667 27.8511C50.625 27.7672 50.5621 27.6623 50.4991 27.5574L50.4991 27.5574L50.4991 27.5573C50.4362 27.4524 50.3732 27.3475 50.3313 27.2636C49.9116 26.6341 49.5759 26.0886 49.4081 25.4172C49.0723 23.9484 49.8277 22.4377 51.0866 21.976C51.6322 21.7243 52.4295 21.6823 52.7233 22.1859C52.9331 22.5636 52.9331 22.8153 52.7233 22.8993C52.4715 23.1091 52.3876 23.4448 52.5974 23.7386C52.9331 24.2002 53.5206 23.9064 53.7724 23.4868C54.1501 23.0671 54.234 22.3118 53.7304 21.5564C53.017 20.4653 51.5902 20.4653 50.625 20.885C48.8205 21.5984 47.8134 23.7386 48.233 25.7109C48.4848 26.5082 48.9045 27.2216 49.3241 27.8931C49.3635 27.9915 49.4213 28.0806 49.4759 28.1649L49.4759 28.1649C49.5378 28.2603 49.5956 28.3495 49.6179 28.4386C49.7438 28.6485 49.9116 28.9002 50.0795 29.152L50.7509 30.369C50.8195 30.4375 50.832 30.4781 50.8572 30.5592C50.8628 30.5774 50.8691 30.5977 50.8768 30.6208C49.492 31.9637 48.0652 33.6423 47.6455 35.5727C47.3518 37.0834 47.7295 38.3004 48.8205 38.9298C49.1563 39.0977 49.492 39.1816 49.8697 39.1816C50.0795 39.1816 50.2473 39.1816 50.4572 39.0557ZM60.2769 19.9617C60.2948 19.7836 60.3201 19.5904 60.3466 19.3885C60.3826 19.1146 60.4206 18.8248 60.4448 18.5349C60.5707 17.3179 60.7386 16.2688 60.9064 15.3036C61.2841 12.8697 61.7037 10.8134 62.2493 8.84105C62.585 7.58211 63.0466 6.11334 63.76 4.93832C64.3056 4.0151 64.7672 3.72134 65.1029 3.72134H65.1868C65.4806 3.72134 65.6065 3.84724 65.7743 4.09903C66.2359 4.98029 66.0261 6.9946 65.3127 9.47052C65.2778 9.67975 65.214 9.80204 65.1453 9.93372L65.1452 9.93388C65.1312 9.96062 65.1171 9.98774 65.1029 10.0161C63.9279 13.8349 62.0814 17.1501 60.2769 19.9617ZM48.8205 35.8244C48.6527 36.4959 48.6107 37.503 49.4081 37.9646C49.6179 38.0486 49.8697 38.0486 50.1634 38.0066C50.5831 37.8387 50.9608 37.4611 51.2125 36.9575C51.6742 36.0343 51.842 34.8173 51.6322 33.2226C51.6077 32.929 51.5404 32.6639 51.472 32.394C51.423 32.2011 51.3734 32.0057 51.3384 31.7958C50.1215 33.1387 49.1143 34.3137 48.8205 35.8244Z" fill="#051635"/>
</svg>

